<svg version="1" xmlns="http://www.w3.org/2000/svg" width="654.667" height="654.667" viewBox="0 0 491.000000 491.000000"><path d="M221.5.6c-37.4 5.4-57.1 11.1-84 24.3C87.1 49.7 48.1 89 23.9 139.5c-10.7 22.4-17.4 43.8-21.6 69-2.6 15.7-2.6 58.3 0 74 6.9 41.7 22.6 78.4 47.8 112.2 9.4 12.6 33.6 36.8 46.2 46.2 27.5 20.6 56.2 34.4 88.2 42.6 23.5 6 32.1 7 61 7 20.5 0 28.3-.4 37-1.8 41.7-6.9 78.4-22.6 112.2-47.8 12.6-9.4 36.8-33.6 46.2-46.2 20.5-27.5 34.2-55.7 42.6-88.1 6-23 7-32.1 7-61.1 0-20.4-.4-28.4-1.8-37-9-54.7-34.3-103.1-73.4-140.5C385 38.9 346.7 17.6 306.5 7.3 285.8 2 276.1.9 249.5.5c-13.7-.2-26.3-.1-28 .1zM273 14.1c77.8 8.8 147.8 58.6 182 129.4 24.5 50.8 29.9 105.2 15.9 160.9-18.1 72.2-73.7 133.6-145 160-50.3 18.6-110.5 18.6-160.8 0C82.9 433.9 24.5 359.7 13.9 272.5c-1.5-12.8-1.5-41.2 0-54 6.1-50.2 28.1-97 62.7-133.4 50.9-53.5 122.5-79.4 196.4-71z"/><path d="M83 105v6h306V99H83v6zM157.7 127.7l-26.8.3.3 12.8.3 12.7 25.3.3 25.3.2-.4 78.3c-.5 82.6-.6 84.6-5.2 93.8-4.5 8.7-11.7 13-25.4 15-11 1.5-23.1.6-35.6-2.7-5.5-1.5-11-2.9-12.3-3.1l-2.3-.5.3 15.3.3 15.4 11.5 1.8c7.2 1.1 17.9 1.9 28.5 2 18.5.1 25.9-1 36.4-5.8 2.9-1.4 5.5-2.5 5.7-2.5.2 0 .4 1.3.4 3v3h32v-89h18.3c37.4 0 47.2-2 73-14.8.4-.2.7 17.4.7 39.2v39.5l-15.2.3-15.3.3-.3 12.7-.3 12.8h95.2l-.3-12.8-.3-12.7-15.2-.3-15.3-.3V154h31.1l-.3-13.3-.3-13.2H278c-51.4 0-105.6.1-120.3.2zm99 28.3c19.8 1.3 31.3 5.7 39.7 15 5.2 5.8 8.4 13.2 9.6 22.1 2.8 22.4-6.8 42-24.7 50.5-9.4 4.4-17 5.5-42 6.1l-23.3.6V155h13.8c7.5.1 19.6.5 26.9 1zM81.4 384.4c-.3.7-.4 3.3-.2 5.7l.3 4.4 152.8.3 152.7.2v-12H234.5c-129.1 0-152.6.2-153.1 1.4z"/></svg>